<svg xmlns="http://www.w3.org/2000/svg" viewBox="0 0 1600 420"><defs><linearGradient id="sky" x2="0" y2="1"><stop stop-color="#ffb03a"/><stop offset=".48" stop-color="#d75924"/><stop offset="1" stop-color="#402029"/></linearGradient><linearGradient id="desk"><stop stop-color="#8c4b25"/><stop offset="1" stop-color="#2d1712"/></linearGradient></defs><rect width="1600" height="420" fill="#07182d"/><rect x="760" width="840" height="420" fill="url(#sky)"/><circle cx="1280" cy="165" r="43" fill="#ffd772"/><path d="M760 300h840v45H760z" fill="#24182a" opacity=".7"/><g fill="#21172a" opacity=".85"><path d="M790 300v-95h52v95m25 0V170h58v130m40 0v-75h60v75m38 0V145h70v155m45 0V190h58v110m55 0V120h72v180m45 0V205h70v95"/></g><g stroke="#8a4c37" stroke-width="16"><path d="M810 0v340M1060 0v340M1370 0v340"/></g><path d="M690 340h910v80H620z" fill="url(#desk)"/><g transform="translate(1120 172)"><path d="M0 0h250l-25 160H30z" fill="#25282d" stroke="#9c806c" stroke-width="6"/><circle cx="125" cy="75" r="17" fill="#a7a5a2"/><path d="M-40 166h330l-24 17H-15z" fill="#17191d"/></g><g transform="translate(1470 245)"><path d="M-35 85h70l-8 80h-54z" fill="#6f4931"/><g fill="#365c33"><ellipse rx="16" ry="55" transform="rotate(-35) translate(0 -46)"/><ellipse rx="16" ry="55" transform="rotate(35) translate(0 -46)"/><ellipse rx="14" ry="48" transform="translate(0 -55)"/></g></g><g transform="translate(900 272)"><path d="M0 0h56l-5 84H6z" fill="#8d3d13" stroke="#d47d35" stroke-width="4"/><path d="M10 15h36" stroke="#ffd59a" opacity=".4"/><path d="M28 0l18-68" stroke="#2b1d1b" stroke-width="5"/></g></svg>
